<svg width="48" height="48" viewBox="0 0 48 48" fill="none" xmlns="http://www.w3.org/2000/svg">
<path d="M0 24C0 10.7452 10.7452 0 24 0C37.2548 0 48 10.7452 48 24C48 37.2548 37.2548 48 24 48C10.7452 48 0 37.2548 0 24Z" fill="white"/>
<path fill-rule="evenodd" clip-rule="evenodd" d="M29.2669 9.59961C29.5182 11.3062 28.8235 12.9782 27.9072 14.1611C26.9268 15.4299 25.2369 16.4112 23.5996 16.36C23.3007 14.7261 24.066 13.0426 24.9972 11.9109C26.0186 10.6619 27.7692 9.70369 29.2669 9.59961ZM34.1854 33.6212C35.0295 32.3276 35.3448 31.675 36 30.2146C31.2343 28.4022 30.4707 21.6269 35.1871 19.0265C33.7485 17.2224 31.727 16.1766 29.8187 16.1766C28.4437 16.1766 27.5016 16.5355 26.6452 16.8617C25.9315 17.1335 25.2772 17.3827 24.4815 17.3827C23.6216 17.3827 22.8601 17.1096 22.0628 16.8238C21.1866 16.5096 20.2672 16.1799 19.1262 16.1799C16.9848 16.1799 14.7054 17.4884 13.2602 19.7254C11.2288 22.8759 11.5753 28.7987 14.8696 33.8443C16.0471 35.65 17.6203 37.6788 19.678 37.697C20.5318 37.7054 21.1 37.4506 21.7148 37.1748C22.4186 36.8592 23.1834 36.5162 24.5078 36.5091C25.8399 36.5011 26.5927 36.8484 27.2871 37.1686C27.8862 37.4449 28.4417 37.7012 29.2883 37.692C31.3476 37.6755 33.0079 35.427 34.1854 33.6212Z" fill="#0B0B0A"/>
</svg>
