<svg width="48" height="48" viewBox="0 0 48 48" fill="none" xmlns="http://www.w3.org/2000/svg">
<path d="M24 48C37.2548 48 48 37.2548 48 24C48 10.7452 37.2548 0 24 0C10.7452 0 0 10.7452 0 24C0 37.2548 10.7452 48 24 48Z" fill="white"/>
<path d="M33.6457 28.8446C37.0821 26.9395 39.7066 25.4844 39.9453 25.3518C40.6574 24.957 41.4035 23.9495 39.9453 23.1441C39.4766 22.8848 36.9227 21.4742 33.6416 19.6611L29.1289 24.2671L33.6457 28.8446Z" fill="#FFE300"/>
<path d="M29.1288 24.2676L14.6953 38.9988C15.0213 39.0407 15.4133 38.9533 15.8642 38.7033C16.7978 38.1857 26.8236 32.6271 33.6458 28.8446L29.1288 24.2676Z" fill="#FF4E54"/>
<path d="M29.1294 24.2672L33.6421 19.6612C33.6421 19.6612 16.869 10.3921 15.8648 9.83718C15.4788 9.62383 15.058 9.54937 14.6855 9.63339L29.1294 24.2672Z" fill="#00F085"/>
<path d="M29.1292 24.2673L14.6851 9.63379C14.0885 9.76858 13.5996 10.2916 13.5996 11.3428V37.2428C13.5996 38.2329 13.9842 38.9291 14.6955 38.9986L29.1292 24.2673Z" fill="#00E0FF"/>
</svg>
