<svg width="48" height="48" viewBox="0 0 48 48" fill="none" xmlns="http://www.w3.org/2000/svg">
<path d="M0 24C0 10.7452 10.7452 0 24 0C37.2548 0 48 10.7452 48 24C48 37.2548 37.2548 48 24 48C10.7452 48 0 37.2548 0 24Z" fill="#FF0000"/>
<path d="M36.2642 18.0734C35.9698 16.9424 35.1023 16.0518 34.0008 15.7495C32.0046 15.2002 23.9992 15.2002 23.9992 15.2002C23.9992 15.2002 15.9938 15.2002 13.9975 15.7495C12.8959 16.0518 12.0285 16.9424 11.7341 18.0734C11.1992 20.1232 11.1992 24.4002 11.1992 24.4002C11.1992 24.4002 11.1992 28.677 11.7341 30.727C12.0285 31.858 12.8959 32.7486 13.9975 33.051C15.9938 33.6002 23.9992 33.6002 23.9992 33.6002C23.9992 33.6002 32.0046 33.6002 34.0008 33.051C35.1023 32.7486 35.9698 31.858 36.2642 30.727C36.7992 28.677 36.7992 24.4002 36.7992 24.4002C36.7992 24.4002 36.7992 20.1232 36.2642 18.0734Z" fill="white"/>
<path d="M21.5996 28.7998V20.7998L27.9996 24.8L21.5996 28.7998Z" fill="#FF0000"/>
</svg>
