<?xml version="1.0" encoding="UTF-8" standalone="no"?>
<svg width="300" height="600" viewBox="0 0 300 600" fill="none" xmlns="http://www.w3.org/2000/svg">
  <!-- Phone outline -->
  <rect x="30" y="20" width="240" height="560" rx="30" fill="#f8f8f8" stroke="#333" stroke-width="4"/>
  
  <!-- Screen -->
  <rect x="40" y="40" width="220" height="520" rx="20" fill="#fff"/>
  
  <!-- App header -->
  <rect x="40" y="40" width="220" height="60" rx="20" fill="#8c52ff"/>
  <text x="60" y="80" font-family="Arial" font-size="24" font-weight="bold" fill="white">Zingvel</text>
  
  <!-- App content -->
  <!-- Hero image -->
  <rect x="50" y="110" width="200" height="120" rx="8" fill="#e0e0e0"/>
  <circle cx="150" cy="170" r="30" fill="#8c52ff" opacity="0.7"/>
  <text x="130" y="175" font-family="Arial" font-size="14" fill="white">Travel</text>
  
  <!-- Cards -->
  <rect x="50" y="240" width="200" height="80" rx="8" fill="#f5f5f5" stroke="#e0e0e0" stroke-width="1"/>
  <rect x="60" y="250" width="60" height="60" rx="4" fill="#e0e0e0"/>
  <rect x="130" y="255" width="110" height="12" rx="2" fill="#333"/>
  <rect x="130" y="275" width="80" height="8" rx="2" fill="#666"/>
  <rect x="130" y="290" width="60" height="8" rx="2" fill="#666"/>
  
  <rect x="50" y="330" width="200" height="80" rx="8" fill="#f5f5f5" stroke="#e0e0e0" stroke-width="1"/>
  <rect x="60" y="340" width="60" height="60" rx="4" fill="#e0e0e0"/>
  <rect x="130" y="345" width="110" height="12" rx="2" fill="#333"/>
  <rect x="130" y="365" width="80" height="8" rx="2" fill="#666"/>
  <rect x="130" y="380" width="60" height="8" rx="2" fill="#666"/>
  
  <rect x="50" y="420" width="200" height="80" rx="8" fill="#f5f5f5" stroke="#e0e0e0" stroke-width="1"/>
  <rect x="60" y="430" width="60" height="60" rx="4" fill="#e0e0e0"/>
  <rect x="130" y="435" width="110" height="12" rx="2" fill="#333"/>
  <rect x="130" y="455" width="80" height="8" rx="2" fill="#666"/>
  <rect x="130" y="470" width="60" height="8" rx="2" fill="#666"/>
  
  <!-- Bottom navigation -->
  <rect x="40" y="520" width="220" height="40" rx="0" fill="#f8f8f8"/>
  <circle cx="75" cy="540" r="10" fill="#8c52ff"/>
  <circle cx="150" cy="540" r="10" fill="#ccc"/>
  <circle cx="225" cy="540" r="10" fill="#ccc"/>
</svg>
