<svg width="20" height="14" viewBox="0 0 20 14" fill="none" xmlns="http://www.w3.org/2000/svg">
<path d="M0.673828 0H19.3249V13.3333H0.673828V0Z" fill="#181A93"/>
<path d="M0 0H20V4.44444H0V0Z" fill="#FFA44A"/>
<path d="M0 8.88892H20V13.3334H0V8.88892Z" fill="#1A9F0B"/>
<path d="M0 4.44446H20V8.8889H0V4.44446Z" fill="white"/>
<path d="M9.99935 8.00004C10.7357 8.00004 11.3327 7.40309 11.3327 6.66671C11.3327 5.93033 10.7357 5.33337 9.99935 5.33337C9.26297 5.33337 8.66602 5.93033 8.66602 6.66671C8.66602 7.40309 9.26297 8.00004 9.99935 8.00004Z" fill="white"/>
<path d="M10.0004 8.44447C9.02188 8.44447 8.22266 7.64525 8.22266 6.66669C8.22266 5.68814 9.02188 4.88892 10.0004 4.88892C10.979 4.88892 11.7782 5.68814 11.7782 6.66669C11.7782 7.64525 10.979 8.44447 10.0004 8.44447ZM10.0004 8.00003C10.71 8.00003 11.3338 7.37625 11.3338 6.66669C11.3338 5.95714 10.7139 5.33336 10.0004 5.33336C9.28698 5.33336 8.6671 5.95714 8.6671 6.66669C8.6671 7.37625 9.29088 8.00003 10.0004 8.00003Z" fill="#181A93"/>
<path d="M10.0002 7.55561C10.4911 7.55561 10.8891 7.15764 10.8891 6.66672C10.8891 6.1758 10.4911 5.77783 10.0002 5.77783C9.5093 5.77783 9.11133 6.1758 9.11133 6.66672C9.11133 7.15764 9.5093 7.55561 10.0002 7.55561Z" fill="#181A93"/>
</svg>
